<?xml version="1.0" encoding="utf-8"?>
<!-- Generator: Adobe Illustrator 26.2.1, SVG Export Plug-In . SVG Version: 6.00 Build 0)  -->
<svg version="1.1" id="Layer_1" xmlns="http://www.w3.org/2000/svg" xmlns:xlink="http://www.w3.org/1999/xlink" x="0px" y="0px"
	 viewBox="0 0 187.6 187.6" style="enable-background:new 0 0 187.6 187.6;" xml:space="preserve">
<style type="text/css">
	.st0{fill:#00934B;}
	.st1{fill:#22D511;}
	.st2{fill:#BEF000;}
</style>
<g>
	<path class="st0" d="M26.2,61.2l0.5,0.2l4.7,2.1l5.2,2.3C42.4,53.5,52.3,43.2,65.4,37l-2.3-5.2l-3.3-7.6
		c-3.7-7.4-10.4-4.9-12.8-3.7c-10.6,6.6-19.4,15.3-26,25.4c-0.1,0.1-0.1,0.2-0.1,0.4C16.7,56.1,24.1,60.2,26.2,61.2z"/>
	<path class="st1" d="M36.7,65.7l8.4,3.7l7.3,3.2l5.8,2.6c3.5-7.1,9.3-13.1,16.8-16.8l-2.6-5.8l-3.2-7.3l-3.7-8.4
		C52.4,43.1,42.5,53.5,36.7,65.7z"/>
	<path class="st2" d="M58.1,75.2l12.1,5.3l11.2,4.9c1.5-0.1,2.8-1.1,3.4-2.5c0.2-0.5,0.3-0.9,0.3-1.4l-4.9-11.1l-5.3-12.1
		C67.4,62.1,61.6,68.1,58.1,75.2z"/>
	<path class="st0" d="M178.7,75.9c-3.9-9.7-11.9-7.5-14.1-6.6l-0.6,0.2l-4.9,1.9l-5.3,2.1c4.9,13.6,4.6,28,0,40.8l5.3,2.1l6.8,2.6
		c7.9,3.3,11.2-2.3,12.4-5.3C181.3,101.5,181.5,88.6,178.7,75.9z"/>
	<path class="st1" d="M153.9,73.5l-8.5,3.3l-7.5,2.9L132,82c2.7,8,2.6,16.3,0,23.8l5.8,2.3l7.5,2.9l8.5,3.3
		C158.5,101.5,158.8,87.2,153.9,73.5z"/>
	<path class="st2" d="M132.1,82l-12.3,4.8l-11.4,4.5c-1,1.1-1.3,2.7-0.7,4.2c0.2,0.4,0.4,0.8,0.7,1.1l11.4,4.4l12.3,4.8
		C134.6,98.3,134.8,90,132.1,82z"/>
	<path class="st0" d="M28.2,116.4l5.3-2.1c-4.9-13.6-4.6-28,0-40.8l-5.3-2.1l-6.9-2.7c-8-3.2-11.2,2.7-12.3,5.6
		c-2.9,12-3.1,24.7-0.4,37.2c0,0,0,0,0,0.1c3.9,10,12,7.7,14.2,6.9L28.2,116.4z"/>
	<path class="st1" d="M33.5,114.3L42,111l7.4-2.9l5.9-2.3c-2.7-8-2.6-16.3,0-23.8l-5.9-2.3L42,76.9l-8.5-3.3
		C28.9,86.4,28.6,100.7,33.5,114.3z"/>
	<path class="st2" d="M55.4,105.8l12.3-4.8L79,96.6c1-1.1,1.3-2.7,0.7-4.2c-0.2-0.5-0.5-0.9-0.8-1.2l-11.3-4.4L55.3,82
		C52.8,89.6,52.7,97.9,55.4,105.8z"/>
	<path class="st0" d="M36.8,122.1l-5.2,2.3l-5.4,2.4c0,0-9.5,5.1-5.1,14.9v0.1c6.9,10.7,16,19.4,26.4,25.8c2.7,1.3,9.5,3.5,12.9-4.8
		l2.9-6.6l2.3-5.2C53.4,145.1,43,135.2,36.8,122.1z"/>
	<path class="st1" d="M72.6,135.2l2.5-5.7C68,126,62,120.2,58.3,112.7l-5.8,2.5l-7.3,3.2l-8.4,3.7c6.2,13.1,16.6,23,28.9,28.8
		l3.7-8.4L72.6,135.2z"/>
	<path class="st2" d="M75.1,129.4l5.3-12.1l4.9-11.1c-0.1-1.5-1-2.9-2.5-3.5c-0.4-0.2-0.9-0.3-1.4-0.3l-11.1,4.9l-12.1,5.3
		C62,120.2,68,125.9,75.1,129.4z"/>
	<path class="st0" d="M150.7,65.8l5.2-2.3l5.8-2.6l-0.5,0.1c2.1-1,9.4-5,5.3-14.6c-7-11-16.4-19.9-27.2-26.4c-7.6-3.9-12.3,5-12.3,5
		l-2.9,6.7l-2.3,5.2C134.1,42.7,144.5,52.6,150.7,65.8z"/>
	<path class="st1" d="M114.9,52.5l-2.5,5.8c7.1,3.5,13.1,9.3,16.9,16.9l5.8-2.5l7.3-3.2l8.3-3.7c-6.2-13.1-16.6-23.1-28.9-28.9
		l-3.7,8.4L114.9,52.5z"/>
	<path class="st2" d="M112.4,58.3l-5.3,12.1l-4.9,11.3c0.1,1.5,1,2.8,2.5,3.4c0.4,0.2,0.9,0.3,1.4,0.3l11.2-4.9l12.1-5.3
		C125.5,67.6,119.5,61.9,112.4,58.3z"/>
	<path class="st0" d="M116.2,159.3l-2.1-5.3c-13.7,4.9-28,4.6-40.8,0l-2.1,5.3l-3.4,8.8c0,0-1.7,6.9,8.3,10.7
		c0.2,0.1,0.4,0.2,0.6,0.2c11.5,2.4,23.6,2.4,35.5-0.3c1.7-0.5,10-3.1,7-11.8L116.2,159.3z"/>
	<path class="st1" d="M114.2,154l-3.3-8.5L108,138l-2.3-5.8c-8,2.7-16.3,2.6-23.8,0l-2.3,5.8l-2.9,7.5l-3.3,8.5
		C86.2,158.6,100.5,158.9,114.2,154z"/>
	<path class="st2" d="M105.6,132.2l-4.8-12.3l-4.4-11.3c-1.1-1-2.8-1.3-4.3-0.7c-0.4,0.2-0.8,0.4-1.1,0.7l-4.4,11.3l-4.8,12.3
		C89.4,134.7,97.6,134.9,105.6,132.2z"/>
	<path class="st0" d="M71.1,28.4l2.1,5.3c13.7-4.9,28-4.6,40.8-0.1l2.1-5.3l2.1-5.4c0.8-2.2,3.1-10.4-6.9-14.2
		c-0.1,0-0.1-0.1-0.2-0.1C99.2,6.2,86.7,6.2,74.4,9.1c-2.8,0.9-9.4,4.1-5.9,12.6L71.1,28.4z"/>
	<path class="st1" d="M73.2,33.7l3.3,8.5l2.9,7.4l2.3,5.9c8-2.7,16.3-2.6,23.8,0l2.3-5.9l2.9-7.4l3.3-8.5
		C101.2,29.1,86.9,28.8,73.2,33.7z"/>
	<path class="st2" d="M81.7,55.5l4.8,12.3L91,79.3c1.1,0.9,2.7,1.2,4.1,0.6c0.5-0.2,0.9-0.5,1.2-0.8l4.4-11.4l4.8-12.3
		C98,53,89.7,52.8,81.7,55.5z"/>
	<path class="st0" d="M161.2,126.6l-0.6-0.2l-4.7-2.1l-5.2-2.3c-5.8,12.3-15.7,22.6-28.9,28.9l2.3,5.2l2.9,6.6l0,0
		c3.8,9.2,11.6,5.6,13.6,4.4c10.5-6.6,19.1-15.2,25.6-25.2c0.1-0.1,0.1-0.2,0.2-0.4C170.7,131.7,163.3,127.6,161.2,126.6z"/>
	<path class="st1" d="M150.7,122l-8.4-3.7l0,0l-7.4-3.2l-5.7-2.5c-3.5,7.1-9.3,13-16.8,16.7l2.5,5.7l3.2,7.4l3.7,8.4
		C134.9,144.7,144.9,134.3,150.7,122z"/>
	<path class="st2" d="M129.2,112.7l-12.1-5.3l-11-4.8c-0.4,0-0.9,0.1-1.3,0.3c-1,0.4-1.8,1.2-2.2,2.2c-0.2,0.4-0.3,0.8-0.3,1.3
		l4.8,11l5.3,12.1C119.9,125.7,125.7,119.8,129.2,112.7z"/>
</g>
</svg>
