<svg version="1.2" xmlns="http://www.w3.org/2000/svg" viewBox="0 0 200 200" width="40" height="40">
	<style>
		.s0 { opacity: .96;fill: #f36320 }
	</style>
	<g id="Layer 1">
		<path id="Path 0" fill-rule="evenodd" class="s0" d="m36.5 13.39c-2.75 0.69-6.8 2.18-9 3.32-2.2 1.13-5.82 4.02-8.04 6.42-2.22 2.4-5.15 6.62-6.5 9.37l-2.46 5v128c4.15 8.53 7.63 13.14 10.42 15.75 2.8 2.61 5.64 4.76 6.33 4.78 0.69 0.01 4.17-1.85 7.75-4.14 3.58-2.29 9.2-6.92 12.5-10.28 3.3-3.37 7.35-8.67 9-11.79 2.67-5.05 3.41-5.73 6.75-6.25 2.06-0.31 5.21-1.3 7-2.19 1.79-0.89 4.71-2.69 6.5-4 1.79-1.31 4.45-4.74 5.91-7.63 2.17-4.26 2.67-6.66 2.71-12.75 0.02-4.13-0.54-9.3-1.25-11.5-0.71-2.2-3.97-9.63-7.24-16.5-3.27-6.88-6.2-14.3-6.51-16.5-0.39-2.77 0.09-5.7 1.53-9.5 1.16-3.03 2.1-5.84 2.1-6.25 0-0.41-0.56-0.76-1.25-0.78-0.69-0.01-2.21 1-3.38 2.25-1.18 1.26-2.92 3.86-3.88 5.78-1.25 2.52-1.63 5.18-1.36 9.5 0.27 4.18 1.32 7.82 3.47 12 1.7 3.3 4.73 9.15 6.74 13 2.01 3.85 4.16 9.7 4.77 13 0.83 4.43 0.83 7.11 0.01 10.25-0.71 2.68-2.69 5.84-5.37 8.57-2.62 2.65-6.17 4.97-9.25 6.04-3.42 1.19-6.26 1.52-9 1.05-2.2-0.37-5.58-1.46-7.5-2.41-1.92-0.94-5.08-3.57-7-5.83-1.92-2.26-3.84-4.12-4.25-4.14-0.41-0.02-0.86 1.43-1 3.22l-0.26 3.25c-5.42-5.49-7.55-8.86-8.22-11.04-0.68-2.18-1.23-5.99-1.23-8.46 0-2.47 0.88-6.3 1.96-8.5 1.08-2.2 3.57-6.25 5.53-9 1.97-2.75 4-6.58 4.52-8.5 0.52-1.92 0.93-5.75 0.92-8.5 0-2.75 0.71-7.03 1.58-9.5 0.88-2.47 2.39-5.63 3.37-7 0.98-1.38 3.86-3.85 6.4-5.5 2.55-1.65 4.3-3.35 3.9-3.78-0.39-0.43-2.18-0.76-3.97-0.75-2.92 0.03-3.15-0.17-2.25-1.97 0.55-1.1 2.91-3.1 5.25-4.44 2.34-1.35 6.44-3.03 9.11-3.75 2.98-0.8 6.85-3 10-5.68 2.83-2.4 6.26-4.93 7.64-5.61 1.38-0.68 3.63-1.52 5-1.86 1.38-0.34 4.08-0.17 6 0.38 1.92 0.55 6.54 2.79 10.25 4.98 3.86 2.27 7.5 3.76 8.5 3.46 1.58-0.47 1.53-0.71-0.5-2.5-1.24-1.09-2.25-2.43-2.25-2.98 0-0.55 0.67-1.23 1.5-1.5 0.83-0.28 2.96-0.49 4.75-0.48 1.79 0.01 5.05 0.84 7.25 1.84 2.2 1 5.24 3.46 6.75 5.48 2.14 2.85 4.13 4.09 9 5.6 4.4 1.37 7.21 3 9.5 5.5 1.79 1.96 3.25 4.01 3.25 4.56 0 0.55-1.12 0.77-2.5 0.5-1.37-0.28-2.71-0.16-2.96 0.25-0.25 0.41 0.84 2.33 2.41 4.25 1.57 1.92 3.35 4.74 3.95 6.25 0.61 1.51 1.1 6.01 1.09 10 0 4.81 0.5 8.01 1.5 9.5 1.17 1.75 3.13 2.51 8.76 3.41 5.3 0.84 7.86 1.78 9.5 3.5 1.93 2.01 2.25 3.43 2.27 10.09 0.01 4.26-0.51 9.33-1.15 11.25-0.63 1.92-1.88 4.3-2.76 5.28-0.89 0.98-2.74 1.76-4.11 1.74-1.37-0.03-3.18-0.46-4-0.97-1.28-0.79-1.31-1.52-0.25-4.99 0.69-2.23 2.6-5.41 4.25-7.06 1.65-1.65 3.45-4.13 4-5.5 0.55-1.38 1-3.4 1-4.5 0-1.1-0.68-2.68-1.5-3.5-1.01-1.01-3.55-1.51-7.75-1.52-3.44-0.01-7.71 0.44-9.5 1-2.72 0.85-3.25 1.51-3.25 4.02 0 1.89 1.11 4.3 3 6.5 1.65 1.92 3.68 3.5 4.5 3.5 0.82 0 1.48 0.56 1.46 1.25-0.03 0.69-1.72 2.89-3.75 4.88-2.24 2.2-5.49 4.12-8.21 4.84-2.47 0.66-6.07 1.01-8 0.79-1.93-0.23-6.2-1.65-9.5-3.15-3.3-1.51-7.35-3.82-9-5.13-1.65-1.32-3.35-2.08-3.78-1.69-0.43 0.39-0.75 1.61-0.72 2.71 0.03 1.1 2.07 3.91 4.53 6.25 2.46 2.34 4.92 4.03 5.47 3.75 0.55-0.28 1-0.05 1 0.5 0 0.55 2.03 1.45 4.5 2 2.47 0.55 7.09 0.99 10.25 0.97 3.16-0.02 8.22-0.87 11.25-1.9 4.28-1.45 5.89-1.61 7.25-0.72 0.97 0.63 1.74 1.83 1.73 2.65-0.02 0.82-1.93 3.3-4.26 5.51-2.64 2.51-6.28 4.67-9.72 5.77-3.03 0.97-8.2 1.75-11.5 1.75-4.35-0.02-8.2-0.89-14-3.18-4.43-1.74-9.4-4.54-11.14-6.25-1.73-1.71-3.4-2.65-3.72-2.1-0.31 0.55 0.92 4.15 2.73 8 1.82 3.85 5.48 10.82 8.15 15.5 2.66 4.68 8.47 14.07 12.91 20.88l8.07 12.39c23.49-0.81 25.7-1.19 30.75-3.56 3.16-1.49 7.9-4.85 10.53-7.46 3.09-3.07 5.57-6.79 7-10.5 2.22-5.75 2.22-5.76 1.97-69.5l-0.25-63.75c-3.87-7.72-7.25-12.13-10-14.78-2.91-2.82-7.29-5.75-10.5-7.02-5.43-2.17-6.28-2.2-65.5-2.38-45.4-0.14-61.22 0.12-65 1.07zm97.5 66.61c-1.1 1.1-2 2.67-2 3.5 0 0.83 0.34 2.24 0.75 3.15 0.41 0.91 1.88 2.04 3.25 2.52 1.76 0.61 3.16 0.42 4.75-0.65q2.25-1.52 2.25-4.52 0-3-2.25-4.51c-1.24-0.83-2.81-1.5-3.5-1.5-0.69 0.01-2.15 0.91-3.25 2.01zm-28.88 1.55c-1.61 1.05-2.35 2.44-2.27 4.26 0.06 1.48 0.69 3.26 1.38 3.96 0.7 0.69 2.51 1.26 4.02 1.25 1.86-0.01 3.24-0.83 4.25-2.52 1.09-1.82 1.23-3.05 0.5-4.5-0.55-1.1-1.9-2.45-3-3-1.1-0.55-2.11-1-2.25-1.01-0.14 0-1.32 0.7-2.63 1.56z"/>
	</g>
</svg>