<svg version="1.2" xmlns="http://www.w3.org/2000/svg" viewBox="0 0 200 200" width="40" height="40">
	<style>
		.s0 { opacity: .95;fill: #ffffff } 
	</style>
	<g id="Layer 1">
		<path id="Path 0" fill-rule="evenodd" class="s0" d="m93 0.66c-1.38 0.27-5.88 1.33-10 2.36-4.13 1.03-11.32 3.51-16 5.51-4.68 2-12.32 6.13-17 9.18-4.68 3.05-12.38 9.43-17.12 14.17-4.74 4.74-10.95 12.22-13.81 16.62-2.86 4.4-6.36 10.48-7.78 13.5-1.42 3.03-3.65 8.65-4.95 12.5-1.31 3.85-3.27 11.61-4.36 17.25-1.09 5.64-1.98 13.51-1.98 17.5 0 3.99 0.9 11.97 2 17.75 1.1 5.78 2.97 13.43 4.14 17 1.18 3.57 3.84 9.88 5.91 14 2.07 4.13 5.99 10.65 8.7 14.5 2.72 3.85 7.6 9.71 10.85 13.02 3.24 3.31 8.37 7.91 11.4 10.22 3.03 2.31 6.18 4.22 7 4.24 0.82 0.02 7.01-5.48 13.75-12.22 6.73-6.75 12.23-12.71 12.23-13.26-0.01-0.55-3.06-3.7-6.78-7-3.72-3.3-9.22-8.8-12.23-12.23-3.01-3.43-7.3-9.28-9.54-13-2.24-3.72-5.03-9.24-6.2-12.27-1.18-3.03-2.94-8.2-3.92-11.5-1.37-4.6-1.78-9.5-1.77-21 0-12.71 0.36-16.22 2.33-23 1.28-4.4 4.11-11.6 6.31-16 2.19-4.4 5.47-10.02 7.29-12.5 1.82-2.48 6.85-7.88 11.17-12 4.32-4.13 11.01-9.34 14.86-11.59 3.85-2.24 9.48-5.03 12.5-6.2 3.02-1.17 8.2-2.83 11.5-3.7 3.3-0.86 10.73-1.83 16.5-2.16 7.79-0.44 12.82-0.15 19.5 1.11 4.95 0.94 12.6 3.1 17 4.81 4.4 1.71 11.82 5.68 16.5 8.83 4.68 3.15 9.74 7.11 11.25 8.81 1.51 1.7 2.52 3.54 2.25 4.09-0.27 0.55-3.54-1.49-7.25-4.53-3.71-3.04-10.12-7.28-14.25-9.43-4.12-2.14-11.1-4.92-15.5-6.17-6.27-1.79-10.59-2.28-20-2.31-9.62-0.02-13.59 0.43-20 2.28-4.4 1.27-11.37 4.06-15.5 6.21-4.12 2.14-10.2 6.18-13.5 8.97-3.3 2.79-7.8 7.27-10 9.96-2.2 2.69-5.46 7.29-7.25 10.21-1.8 2.92-4.69 9.36-6.43 14.31-2.7 7.65-3.24 10.81-3.63 21-0.35 9.12-0.03 13.92 1.3 20 0.97 4.4 3.43 11.6 5.48 16 2.05 4.4 5.93 10.89 8.63 14.42 2.69 3.54 8.72 9.74 13.4 13.79 4.68 4.05 9.18 7.35 10 7.33 0.82-0.02 7.01-5.54 13.75-12.28 6.73-6.75 12.24-12.6 12.25-13.01 0-0.41-4.35-4.91-9.66-10-5.32-5.09-11.42-11.95-13.56-15.25-2.14-3.3-4.85-9.15-6.04-13-1.53-5.01-2.14-9.56-2.12-16 0.02-6.24 0.68-11.15 2.15-16 1.17-3.85 3.87-9.7 6.01-13 2.13-3.3 6.54-8.48 9.8-11.52 3.26-3.03 8.4-6.75 11.42-8.26 3.02-1.51 7.98-3.41 11-4.22 3.02-0.81 9.32-1.47 14-1.47 4.68 0 11.2 0.71 14.5 1.57 3.3 0.86 8.48 2.88 11.5 4.49 3.02 1.61 7.52 4.68 10 6.83 3.09 2.68 4.19 4.25 3.5 4.98-0.7 0.75-2.37-0.06-5.54-2.66-2.5-2.06-7.45-5.09-11-6.74-6-2.79-7.28-3-18.01-3-11.27 0-11.74 0.09-19 3.65-5.21 2.55-9.1 5.42-12.95 9.52-3.02 3.23-6.74 8.44-8.25 11.6-1.51 3.15-3.22 8.77-3.8 12.48-0.75 4.82-0.73 8.75 0.07 13.75 0.72 4.5 2.43 9.46 4.8 13.91 2.66 4.98 6.25 9.36 12.93 15.75 5.09 4.86 10.04 8.84 11 8.85 0.96 0 6.36-4.61 11.99-10.25 5.64-5.64 10.25-10.71 10.26-11.26 0.01-0.55-4.09-5.05-9.11-10-5.49-5.42-9.93-10.79-11.17-13.5q-2.06-4.5-2.03-10.5c0.03-4.33 0.73-7.39 2.53-11 1.37-2.75 4.24-6.48 6.38-8.28 2.15-1.81 6.38-4 9.4-4.86 3.76-1.08 6.92-1.35 10-0.84 2.48 0.4 6.07 1.4 8 2.23 1.93 0.82 6.31 4.37 9.75 7.87 3.44 3.51 7.15 6.83 8.25 7.38 1.1 0.55 3.57 1 5.5 1 2.27 0 4.56-0.88 6.5-2.5 1.99-1.65 3.2-3.77 3.59-6.25 0.35-2.23 0.06-4.97-0.73-6.75-0.73-1.65-4.94-6.62-9.35-11.05-4.4-4.43-10.94-10.13-14.51-12.68-3.57-2.54-10.77-6.66-16-9.14-5.23-2.48-13.55-5.72-18.5-7.21-8.06-2.43-10.82-2.74-26.5-2.98-9.62-0.15-18.62-0.05-20 0.22z"/>
	</g>
</svg>