<svg version="1.2" xmlns="http://www.w3.org/2000/svg" viewBox="0 0 59 44" width="59" height="44">
	<style>
		.s0 { fill: #ffffff } 
	</style>
	<g id="Layer 1">
		<path class="s0" d="m28.9 3.95q-6.77 0-13.53 0c2.16 4.55 4.56 7.63 6.52 11.84 4.37-0.1 9.2 0.07 13.77 0-2.34-4.2-4.71-7.66-6.76-11.84z"/>
		<path class="s0" d="m34.69 17.48q-6.76 0-13.52 0c-2.28 4.42-4.6 8.03-7.01 12.32 2.38 0.03 5.43-0.28 7.73-0.24 2.3 0.04 5.55 0.45 6.49-0.99 0.94-1.44 1.29-2.34 2.07-3.66 0.78-1.32 1.49-2.48 2.14-3.74 0.65-1.25 1.57-2.17 2.1-3.69z"/>
		<path class="s0" d="m37.11 17.96c-2.24 1.42-2.65 3.87-3.97 5.85-1.32 1.99-2.52 3.66-3.28 5.99 2.51 3.42 4.52 7.34 6.52 11.35 2.53-4.24 4.95-7.86 7.01-12.32-2.46-3.42-4.4-7.19-6.28-10.87z"/>
		<path class="s0" d="m28.9 3.95q-6.77 0-13.53 0c2.16 4.55 4.56 7.63 6.52 11.84 4.37-0.1 9.2 0.07 13.77 0-2.34-4.2-4.71-7.66-6.76-11.84z"/>
		<path class="s0" d="m34.69 17.48q-6.76 0-13.52 0c-2.28 4.42-4.6 8.03-7.01 12.32 2.38 0.03 5.43-0.28 7.73-0.24 2.3 0.04 5.55 0.45 6.49-0.99 0.94-1.44 1.29-2.34 2.07-3.66 0.78-1.32 1.49-2.48 2.14-3.74 0.65-1.25 1.57-2.17 2.1-3.69z"/>
		<path class="s0" d="m37.11 17.96c-2.24 1.42-2.65 3.87-3.97 5.85-1.32 1.99-2.52 3.66-3.28 5.99 2.51 3.42 4.52 7.34 6.52 11.35 2.53-4.24 4.95-7.86 7.01-12.32-2.46-3.42-4.4-7.19-6.28-10.87z"/>
	</g>
</svg>