<svg version="1.2" xmlns="http://www.w3.org/2000/svg" viewBox="0 0 44 44" width="40" height="40">
	<style>
		.s0 { fill: #ffffff } 
	</style>
	<g id="Layer 1">
		<path class="s0" d="m22.46 1q-7.56 0-15.11 0c2.41 5.08 5.09 8.53 7.28 13.22 4.88-0.11 10.28 0.08 15.38 0-2.61-4.69-5.25-8.55-7.55-13.22z"/>
		<path class="s0" d="m28.93 16.11q-7.55 0-15.11 0c-2.54 4.94-5.13 8.97-7.82 13.76 2.66 0.04 6.07-0.31 8.63-0.27 2.57 0.05 6.21 0.5 7.25-1.1 1.05-1.61 1.44-2.61 2.31-4.09 0.88-1.47 1.67-2.77 2.39-4.17 0.73-1.4 1.76-2.43 2.35-4.13z"/>
		<path class="s0" d="m31.63 16.65c-2.5 1.59-2.95 4.32-4.43 6.54-1.48 2.22-2.81 4.08-3.66 6.68 2.8 3.83 5.04 8.2 7.28 12.68 2.82-4.74 5.52-8.78 7.83-13.76-2.75-3.82-4.92-8.04-7.02-12.14z"/>
		<path class="s0" d="m22.46 1q-7.56 0-15.11 0c2.41 5.08 5.09 8.53 7.28 13.22 4.88-0.11 10.28 0.08 15.38 0-2.61-4.69-5.25-8.55-7.55-13.22z"/>
		<path class="s0" d="m28.93 16.11q-7.55 0-15.11 0c-2.54 4.94-5.13 8.97-7.82 13.76 2.66 0.04 6.07-0.31 8.63-0.27 2.57 0.05 6.21 0.5 7.25-1.1 1.05-1.61 1.44-2.61 2.31-4.09 0.88-1.47 1.67-2.77 2.39-4.17 0.73-1.4 1.76-2.43 2.35-4.13z"/>
		<path class="s0" d="m31.63 16.65c-2.5 1.59-2.95 4.32-4.43 6.54-1.48 2.22-2.81 4.08-3.66 6.68 2.8 3.83 5.04 8.2 7.28 12.68 2.82-4.74 5.52-8.78 7.83-13.76-2.75-3.82-4.92-8.04-7.02-12.14z"/>
	</g>
</svg>