<svg version="1.2" xmlns="http://www.w3.org/2000/svg" viewBox="0 0 40 40" width="40" height="40">
	<style>
		.s0 { fill: #ffcc00 }
		.s1 { fill: #ffffff }
		.s2 { fill: #0932b5 }
		.s3 { fill: #ff1929 }
	</style>
	<g id="Layer 1">
		<g id="&lt;Group&gt;">
			<path id="&lt;Path&gt;" class="s0" d="m18.87 33.94c-8.34 0-15.09-6.74-15.09-15.09 0-8.34 6.75-15.08 15.09-15.08 8.34 0 15.08 6.74 15.08 15.08 0 8.35-6.74 15.09-15.08 15.09z"/>
			<path id="&lt;Path&gt;" class="s1" d="m37.82 23.55q-1.06-0.61-2.1-1.21c-1.81-1.04-3.51-2.03-5.28-2.99-0.7-0.38-0.88-0.65-0.87-1.32 0.06-2.28-0.93-4.26-2.87-5.74q-0.95-0.73-1.97-1.39 0.22-0.2 0.22-0.51v-6.81q0-0.34-0.26-0.55l-0.35-0.28q-0.2-0.15-0.43-0.15-0.29 0.01-0.51 0.22-0.44 0.46-0.89 0.92c-0.74 0.75-1.51 1.53-2.17 2.39q-0.11-0.5-0.14-1.05-0.1-1.21-0.22-2.39-0.05-0.53-0.1-1.06-0.03-0.3-0.27-0.49-0.19-0.14-0.42-0.14-0.07 0-0.13 0.01c-4.26 0.8-7.1 4.53-7.82 10.03q-0.11-0.25-0.37-0.37-0.13-0.05-0.27-0.05-0.15 0-0.28 0.05c-6.09 2.66-9.57 9.62-7.91 15.84 0.08 0.3 0.35 0.51 0.67 0.51q0 0 0.01 0c0.31 0 0.59-0.22 0.66-0.53q0.1-0.4 0.17-0.79c0.1-0.52 0.2-1.01 0.38-1.44-0.29 4.52 0.23 9.83 4.07 14.52 0.14 0.16 0.34 0.26 0.54 0.26q0.15 0 0.28-0.07c0.29-0.12 0.45-0.43 0.4-0.74-0.76-4.78 0.08-8.89 2.58-12.47l-0.32 2.8c-0.04 0.28 0.11 0.56 0.36 0.69q0.16 0.09 0.33 0.09 0.25-0.01 0.45-0.17 0.43-0.37 0.88-0.74 1.02-0.83 2.02-1.75c1.81-1.7 3.64-2.52 5.6-2.52q1.5 0 3.11 0.67-1.14-0.33-2.2-0.33c-2.06 0-3.85 0.9-5.49 2.74-0.21 0.23-0.33 0.52-0.4 0.92-0.04 0.26 0.08 0.53 0.3 0.68q0.18 0.12 0.39 0.12 0.19 0 0.36-0.1c1.65-0.98 3-1.44 4.25-1.44 1.18 0 2.37 0.41 3.64 1.25q0.1 0.07 0.23 0.16c0.27 0.16 0.63 0.39 0.93 0.66q1.87 1.6 3.63 1.61 1.63-0.01 2.98-1.38c0.16-0.17 0.23-0.39 0.19-0.61-0.04-0.23-0.19-0.41-0.39-0.51q-0.08-0.04-0.17-0.08 0.13 0.01 0.24 0.01c1.97 0 3.46-1.21 5-4.04 0.18-0.33 0.06-0.75-0.27-0.94zm-14.82-8.05v2l1.5 1"/>
			<g id="&lt;Group&gt;">
				<g id="&lt;Group&gt;">
					<path id="&lt;Compound Path&gt;" fill-rule="evenodd" class="s2" d="m29.56 26.68c-1.23-0.67-2.45-1.36-3.68-2.02-3.86-2.04-7.32-1.43-10.46 1.52-0.93 0.87-1.94 1.66-2.88 2.46 0.18-1.53 0.38-3.24 0.61-5.2-4 4.4-5.13 9.34-4.24 14.9-3.96-4.84-4.4-10.41-3.7-16.35-0.64 0.6-1.2 1.21-1.52 1.94-0.32 0.73-0.41 1.58-0.61 2.4-1.54-5.81 1.7-12.47 7.52-15.01q0.58 1.56 1.16 3.13c-0.15-6.91 2.65-11.86 7.43-12.75 0.11 1.14 0.24 2.29 0.32 3.44 0.16 2.36 1.16 4.18 3.27 5.39q1.83 1.04 3.5 2.32c1.68 1.28 2.66 3.02 2.61 5.17-0.03 1.01 0.38 1.49 1.22 1.95 2.46 1.33 4.87 2.76 7.37 4.19-2.17 3.98-4.15 4.58-7.92 2.53zm-6.53-11.24c-0.1 1.87 0.51 2.61 2.52 2.86-0.09-1.77-1.26-2.33-2.52-2.86z"/>
				</g>
				<path id="&lt;Path&gt;" class="s3" d="m32.72 29.23c-2.2-1.04-4.48-2.11-6.75-3.16-3.44-1.57-6.16-1.04-8.53 1.63-0.12 0.12-0.19 0.28-0.24 0.57 3.06-1.83 5.57-2.22 8.64-0.18 0.27 0.18 0.78 0.48 1.23 0.87 1.74 1.5 3.78 2.18 5.65 0.27z"/>
				<path id="&lt;Path&gt;" class="s2" d="m23.91 3.3c-1.1 1.16-2.29 2.25-3.23 3.54-0.23 0.3 0.2 1.44 0.65 1.83 0.8 0.69 1.84 1.1 2.94 1.72 0-2.42 0-4.62 0-6.81q-0.18-0.14-0.36-0.28z"/>
			</g>
		</g>
	</g>
</svg>