<svg xmlns="http://www.w3.org/2000/svg" width="4096" height="4096" version="1.0">
  <g fill="currentColor">
    <path d="M1926 3836.2c-2.8-.8-30.2-1.6-61-1.8-63-.6-69.6-1.6-75.6-12.6-3.4-5.8-3.6-11.8-3.4-64 0-50.4.6-59.4 4-73 2.2-8.4 4-18.6 4-22.6 0-7.2 7.2-72.8 9-81 9-43.8 25.4-111 34.8-143.2 12.6-42.4 38.8-117.6 46-131.8 2.2-4.2 7.8-17 12.2-28.4 14-35 56.2-117.6 74.6-145.4 1.8-3 4.8-8.6 6.6-12.4 1.8-3.8 5.2-9.4 7.6-12.2 2.4-2.8 6.8-10.2 9.8-16.2 3-6.2 6.8-12.2 8.4-13.6 1.6-1.4 3-3.6 3-5 0-1.2 1.8-4 4-6s4-4.6 4-6c0-1.4 1.8-4 4-6s4-4.6 4-6c0-1.2 2-4.2 4.6-6.6 2.4-2.2 6.2-7.6 8.2-11.8 2.2-4.2 6.8-10.8 10.4-14.6 3.6-3.8 8.4-10.6 10.6-15 2.2-4.4 8.2-12 13.2-17 5-4.8 9-9.6 9-10.6 0-1.2 3.2-5.6 7.2-10.2 7.6-8.8 30-36.4 39.8-49.4 12.6-16.6 120.6-127.8 124-127.8 1.2 0 9.2-7.2 18-16s16.8-16 18-16c1.2 0 4.8-2.6 8-6 3.2-3.2 6.8-6 8-6 1.2 0 6.6-4.4 12-10 5.4-5.4 10.8-10 12-10 1.2 0 4.8-2.6 8-6 3.2-3.2 6.8-6 8-6 1.2 0 4.8-2.6 8-6 3.2-3.2 6.8-6 8-6 1.2 0 4.4-2.4 7.2-5.2 2.6-2.8 8.4-6.8 12.8-8.8 4.4-2 10.2-6 12.8-8.8 2.8-2.8 6-5.2 7.2-5.2 1.2 0 4.8-2.6 8-6 3.2-3.2 6.8-6 8-6 1.2 0 4.4-2.4 7.2-5.2 2.6-2.8 8.4-6.8 12.8-8.8 4.4-2 9.8-5.6 12-8 2-2.2 7-5.6 10.8-7.4 4-1.8 11-6.6 15.6-10.4 21.2-18 24.2-20.2 26-20.2 1 0 6.6-5 12.6-11.2 6-6.2 12.6-11.8 14.4-12.4 4.8-2 89.6-86.4 89.6-89.2 0-1.4 3.6-6 8-10.2 4.4-4.2 8-8.8 8-10 0-1.2 3.6-5.8 8-10s8-8.8 8-10.2c0-1.2 1.4-3.4 3-4.8 1.8-1.4 4.6-5.8 6.4-9.8 1.8-4 5.2-9.4 7.6-12.2 2.6-2.8 7.4-10.4 11-16.8 3.6-6.6 11.2-19.6 17-29 12.4-20.4 23-42.4 23-47.2 0-2 3.2-9.2 7-16 17.8-32 44.6-122.6 52.8-179 7.2-49 8.6-74.8 7.6-136.2-.6-45.4-1.8-65.8-5.2-89.8-4.6-33.2-25-117.4-32.4-133.6-2.2-5.2-6.8-16.6-9.8-25.4-7.6-21.4-23.4-57.2-32-72-3.8-6.6-8.2-15.6-9.6-20-1.6-4.4-5.2-10.6-8.2-14-3-3.2-7.4-10-10-15-2.6-5-7.6-13.4-11.2-19-18.4-29.2-21.2-33-37.4-51.8-4.2-4.8-7.6-9.4-7.6-10.4s-6.2-8.2-14-15.8c-7.6-7.6-14-14.8-14-15.8 0-1.2-4.2-6.2-9.2-11.4-5-5.2-10.2-11.4-11.6-14-1.2-2.6-5.8-6.4-10.2-8.6-4.4-2-15.4-10.4-24.4-19-28.8-26.6-39.8-36.2-42-36.2-1 0-3.6-1.8-5.6-4-2-2.2-4.6-4-6-4-1.4 0-5-2.4-8.2-5.4-3.2-3-10.2-7.6-15.8-10.2-5.4-2.6-12.2-6.6-15-9.2-8.6-7.8-89-51.2-94.8-51.2-.6 0-10.8-4.2-22.6-9.2-11.8-5.2-26.4-10.6-32.2-12-5.8-1.6-18.8-6-29-10-17.8-6.8-23.8-8.2-72.4-16.6-12-2.2-27.8-5.4-35-7.2-24.4-6.2-109.2-9.6-160-6.4-24.6 1.6-81.2 11.2-122 20.6-27 6.2-84 24.4-88.2 28-1.8 1.6-12 5.8-23 9.6-24 8.2-59.2 25.4-68.4 33.4-3.6 3.2-7.8 5.8-9.4 5.8-3.8 0-10.4 3.6-17 9.2-2.8 2.4-8 6-11.8 8-10.6 6-50.6 32.2-56.2 37-2.8 2.4-8.2 6.4-12 8.8-3.8 2.6-10.6 8.2-15 12.8-4.2 4.6-8.8 8.2-10 8.2-2.6 0-73 70.4-73 73 0 1.2-5.4 7.4-12 14s-12 12.8-12 14.2c0 1.2-1.8 3.8-4 5.8s-4 4.6-4 6c0 1.2-2.8 4.8-6 8-3.4 3.2-6 6.8-6 8 0 1.4-1.8 4-4 6s-4 4.6-4 6c0 1.4-1.8 4-4 6s-4 4.8-4 6c0 1.4-1.4 3.6-3 5-1.8 1.4-4.8 6.4-7 10.8-2 4.6-5.6 10-8 12.2-2.2 2-5.6 7-7.2 10.8-3.8 8.6-10 21.2-17.2 35-3 5.6-5.4 11.4-5.6 13 0 1.4-2.6 6.6-5.8 11.2-15 22.2-48 126.6-54.2 170.8-7 51-8 67.2-8 128.2 0 110.2 8 158 43.6 262 12.2 35.6 44.4 103.2 55.2 116.2 2.4 2.8 6.8 10.2 9.8 16.2 3 6 7.6 13 10.4 15.6 2.8 2.6 5 5.6 5 6.6s2.8 5.8 6 10.8c3.4 4.8 6 9.4 6 10.2 0 1 3.6 5.2 8 9.4s8 8.8 8 10c0 1.2 3.6 5.8 8 10s8 8.8 8 10c0 1.4 1.8 4 4 6s4 4.8 4 6.4c0 1.4 1 2.6 2.4 2.6 1.2 0 18.2 15.8 37.6 35 19.4 19.2 36 35 37.2 35 1 0 6.4 4.6 11.8 10 5.4 5.6 10.8 10 12 10 1.2 0 5.8 3.6 10 8s8.8 8 10 8c1.2 0 5.4 3.2 9.2 7.2 3.6 3.8 10.4 8.8 15 10.8 4.4 2.2 9.4 5.2 10.8 7 1.4 1.6 3.6 3 5 3 1.2 0 4 1.8 6 4s4.4 4 5.2 4c4 0 32.6 21.4 36 26.8 4.2 7 5 20.2 1.6 28.6-5.8 14-8 18.6-9.8 19.6-1.2.6-3.8 5-5.8 9.6-2.2 4.6-6 11.6-8.6 15.4-2.6 3.8-6 9.8-7.6 13-1.6 3.4-5.2 9.6-7.8 14-2.8 4.4-9.4 16.6-14.8 27-5.2 10.4-11.8 21.2-14.6 24.2-2.6 2.8-4.8 6.2-4.8 7.4 0 3.4-13.6 32-16 33.4-1 .6-5.4 8.6-10 17.8-4.4 9.2-9.4 17.8-11 19.2-1.6 1.4-3 4.4-3 7 0 2.4-1.8 6-4 8s-4 4.8-4 6c0 1.4-1.4 3.6-3 5-1.8 1.4-4.6 5.8-6.4 9.8-1.8 4-6 10.2-9.4 13.8-5.4 5.8-7 6.4-18.2 6.4-14.6 0-31.4-5.8-39.8-13.6-3.4-3.2-9-6.8-12.6-8.2-3.4-1.4-7.8-4.2-9.8-6.4-1.8-2-4.4-3.8-5.8-3.8-3 0-24.6-14.2-31.8-21-3.2-3-9.2-7.2-13.4-9.4-4.2-2-8.6-5.2-10-6.8-1.2-1.6-3.4-2.8-4.6-2.8-1.4 0-5-2.6-8.2-6-3.2-3.2-6.8-6-8-6-1.2 0-5.4-3.2-9.2-7.2-3.6-4-10.2-9.4-14.2-12-4.2-2.6-11-8.4-15-12.8-4.2-4.4-8.6-8-9.6-8-1.2 0-6.6-4.4-12-10-5.4-5.4-10.8-10-12-10-2.8 0-10-7.8-11.6-12.4-.8-2-2.4-3.6-4-3.6-3 0-14.2-11.4-16-16.4-.8-2-2.4-3.6-4-3.6-3 0-14.2-11.4-16-16.4-.8-2-2.4-3.6-4-3.6-3.2 0-15.4-12.2-15.4-15.6 0-1.4-2.2-3.4-5-4.4-2.8-1-5.8-4-6.8-6.6-1-2.4-3.2-5.8-5-7.2-1.8-1.4-3.2-4-3.2-5.6 0-1.4-1.6-3.2-3.4-4-5-1.6-12.6-8.8-12.6-11.6 0-1.2-2.6-4.8-6-8-3.2-3.2-6-6.8-6-8 0-1.2-4.2-6.2-9.2-11-5-5-10-10.8-11-13-1-2.2-5-8-8.8-13-3.8-5-10.2-14-14.4-20-4-6-8.8-12.8-10.8-15-1.8-2.2-6.2-9.4-9.8-16-3.6-6.6-8.6-14.2-11.2-17.2-2.6-2.8-4.8-5.6-4.8-6.2 0-.8-5.4-10.6-11.8-22.2-15.4-27-39.4-75.2-54.6-109.4-11.2-25.2-14.4-34-19.8-52-1.2-3.8-4.2-12.2-7-18.4-2.8-6.4-7.6-21.8-10.8-34.4-3.2-12.4-7.2-26.2-8.8-30.4-3.6-9.4-9.8-34.2-14-55.8-1.6-8.8-5.2-26.6-8-39.8-5.8-27-10.6-65.8-13-105.2-1-14.8-3-30.6-4.4-35-1.8-5.4-2.8-23.6-3.2-56-.6-42.6-.4-49.2 3.2-61 2.4-8.2 4.2-22.6 5-39 2-40.6 8.8-95 15.2-121 2-8.2 5.6-24.4 7.8-36 7-35.8 39-133.8 55.8-171 12.8-28.8 52.2-107.6 59-118.4 3-4.8 5.4-9.2 5.4-10.2s2.2-3.6 4.6-6.2c2.6-2.4 7.6-10 11.2-17 3.4-6.8 8.4-14.6 11.2-17.2 2.8-2.6 5-5.8 5-7 0-1.4 1.8-4 4-6s4-4.6 4-6c0-1.2 3.2-5.4 7.2-9.2 3.8-3.6 8.6-10 10.4-13.8 4-8.8 10-16.6 25.8-33.8 7-7.4 12.6-14.4 12.6-15.6 0-1 1.8-3.6 4-5.6 2.2-2 4-4.6 4-5.8 0-1.2 2-3.2 4.4-4.2 2.6-1.2 5.4-4 6.6-6.2 3.4-6.8 7-10.6 12.6-13.4 3-1.2 6.2-4.4 7.4-6.6 3.4-6.8 7-10.6 12.6-13.4 3-1.2 6.2-4.4 7.4-6.6 3.4-6.8 7-10.6 12.6-13.4 3-1.2 6.2-4.4 7.4-6.6 3.4-6.8 7-10.6 12.8-13.4 2.8-1.4 6.4-5 7.8-8 1.6-3.2 4.6-6.4 7-7.4 2.4-.8 7.6-4.8 11.2-8.8 3.8-4 8-7.2 9.2-7.2 1.2 0 7.4-5.4 14-12s12.8-12 14-12c1.2 0 4.8-2.8 8-6 3.2-3.4 6.8-6 8-6 1.4 0 4-1.8 6.2-4.2 2-2.4 6-5.4 8.8-6.8 2.8-1.4 10.8-7.2 18-12.6 7.2-5.6 15.4-12 18.2-14.2 2.8-2.2 10.4-6.8 16.8-10 6.4-3.4 13.4-7.8 15.8-9.8 2.4-2.2 7.4-5.6 11.2-7.6 3.8-2 8.4-4.8 10-6 1.6-1.2 9.8-5.8 18-10s19.4-10.8 24.8-14.6c5.4-3.6 12.2-7.4 15-8.2 8.6-2.8 32.2-13 49.2-21.4 19.4-9.8 45.6-20.6 63-26.2 7.2-2.2 20.6-6.8 30-10 36.2-12.6 78-24.8 101-29.4 13.2-2.8 29-6.4 35-8.2 15.8-4.6 53.8-9.4 97.2-12.4 15.6-1 23.6-2.4 27.4-5 4.8-3.2 13-3.4 95.2-3.4 82.4 0 90.8.4 102.4 3.8 7 2 21.4 4.4 31.8 5 27 1.6 71.2 8.4 98 15.2 12.6 3 28.4 6.6 35 8 6.6 1.2 22 5.4 34 9 12.2 3.8 31.4 9.6 43 13.2 11.6 3.4 26.8 8.8 33.8 12 7 3.2 14 5.8 15.4 5.8 1.4 0 8.6 2.6 15.8 6 7.2 3.4 13.8 6 14.6 6 1 0 7.2 2.8 14 6 6.8 3.4 12.8 6 13.2 6 .6 0 10.4 4.4 22.2 10 11.8 5.4 22.2 10 23.4 10 1.4 0 3.8 1.2 5.4 2.8 1.8 1.4 10 6.2 18.4 10.8 15.6 8.2 34.8 19.8 52.8 31.2 5.6 3.6 13.2 8 17 9.8 3.8 1.6 9.2 5.4 11.8 8.2 2.8 2.8 6 5.2 7.4 5.2 1.2 0 3.4 1.4 4.8 3 1.4 1.8 6.4 4.8 10.8 7 4.6 2 11.4 7 15 10.8 3.8 4 7.8 7.2 8.8 7.2 2.2 0 12 7.8 27.2 21.6 6.4 5.6 12.4 10.4 13.6 10.4 1.2 0 3.4 1.4 4.8 3.2 1.4 1.8 4.8 4 7.2 5 2.6 1 5.6 4 6.6 6.6 1 2.8 4.4 6.4 7.4 8 3 1.6 8.8 6 12.4 10 3.8 4 8 7.2 9.2 7.2 3.8 0 70.4 68.8 73.8 76.4 1.8 4.2 4.6 7.6 6 7.6 2.8 0 11.2 8.2 11.2 11.2 0 1.2 3.6 5.6 8 9.8 4.4 4.2 8 8.8 8 10 0 1.2 3.6 5.8 8 10s8 8.8 8 10c0 1.4 1.8 4 4 6s4 4.6 4 6c0 1.2 2.4 4.4 5.2 7.2 2.8 2.6 6.8 8.4 8.8 12.8 2 4.4 6 10.2 8.8 12.8 2.8 2.8 5.2 6 5.2 7.4 0 1.2 1.4 3.4 3 4.8s5 6.4 7.4 11.2c2.4 4.8 6.4 10.8 9 13.2 2.6 2.4 4.6 5 4.6 5.8 0 .8 7.2 14.4 16 30.6 16 29.2 43.4 87.4 50 106.2 2 5.6 5.6 14.2 8 19 6.2 12.2 21.2 54.4 28 79.6 3.2 11.2 8 27.6 11 36.4 3 8.8 8.4 30.6 12 48.4 3.8 18 8.6 41.2 10.8 51.6 2.2 10.4 5 29.6 6.2 43 1.2 13.2 3 30 4.2 37.4 2.4 17.8 2.4 190.8-.2 206.4-1 6.6-3.4 26.6-5 44.2-7.2 76.4-36 188.4-70 272-22.6 55.4-67.8 146.4-78.4 157.6-2.6 2.6-4.6 6.4-4.6 8.8 0 2.2-1.8 5.6-4 7.6s-4 4.6-4 6c0 1.2-2.4 4.4-5.2 7.2-2.8 2.6-6.8 8.4-8.8 13-2.2 4.4-5.2 9.4-7 10.8-1.6 1.4-3 3.6-3 4.8 0 1.4-2.6 5-6 8.2-3.2 3.2-6 6.8-6 8 0 1.2-4.4 6.6-10 12-5.4 5.4-10 10.8-10 12 0 1.2-3.6 5.8-8 10s-8 8.8-8 10c0 1.2-4.4 6.6-10 12-5.4 5.4-10 10.8-10 12 0 2.8-7.8 10-12.4 11.6-2 .8-3.6 2.4-3.6 4 0 3-11.4 14.2-16.4 16-2 .8-3.6 2.4-3.6 4 0 3-11.4 14.2-16.4 16-2 .8-3.6 2.4-3.6 4 0 3-11.4 14.2-16.4 16-2 .8-3.6 2.4-3.6 4 0 2.8-8.2 11.4-11 11.4-.8 0-6.4 4.2-12.2 9.6-5.8 5.2-15.2 13-20.8 17.4-5.6 4.4-15.4 12.6-22 18-6.6 5.6-15.4 13-19.8 16.6-4.2 3.4-8.6 6.4-9.6 6.4s-4 2.4-6.8 5.2c-2.6 2.8-8 6.6-11.8 8.4-3.8 1.8-10.6 6.6-15 10.8-4.2 4.2-8.8 7.6-10 7.6-1.2 0-4.4 2.2-7 5-2.4 2.6-10 7.6-16.8 10.8-6.8 3.2-15.4 9.2-19 13-3.8 4-7.6 7.2-8.4 7.2-2.4 0-18.4 11.2-22.6 15.8-2.2 2.4-4.8 4.2-6.2 4.2-1.2 0-4.8 2.8-8 6-3.2 3.4-6.8 6-8 6-1.2 0-4.4 2.4-7.2 5.2-2.6 2.8-8.6 6.8-13 9-4.6 2-8.8 5.4-9.4 7.8-.6 2.2-3.2 4.8-5.8 5.8-2.4 1-7.8 5-11.4 9-3.8 4-7.8 7.2-9 7.2-5.2 0-117.2 112-117.2 117.2 0 1-3.6 5.6-8 9.8-4.4 4.2-8 8.8-8 10 0 1.2-3.6 5.8-8 10s-8 8.8-8 10c0 1.2-2.6 4.8-6 8-3.2 3.2-6 6.8-6 8 0 1.2-2.6 4.8-6 8-3.2 3.2-6 6.8-6 8 0 1.2-2.6 4.8-6 8-3.2 3.2-6 6.8-6 8.2 0 1.2-1.4 3.4-3 4.8-1.8 1.4-4.8 6.4-7 10.8-2 4.6-5.6 10-8 12.2-2.4 2.2-6 7.6-8 12s-8 14.4-13 22c-5.2 7.8-15.4 25.8-22.4 40-7 14.4-14.2 27.4-15.8 29.2-1.6 1.6-2.8 3.8-2.8 4.8 0 .8-6.2 14.8-14 31-7.6 16.2-14 30.8-14 32.6 0 1.6-3.2 9.6-7 17.8-4 8-9.8 23.2-13 34-3.4 10.6-8.2 24-10.8 30-2.6 5.8-7 21-10 33.6-3 12.6-7.6 29-10.2 36.2-2.6 7.2-5.6 20.4-6.8 29-2.6 19-9.2 54.4-13.6 73.8-4.6 20.4-6.4 42.4-7.8 91.8-1.4 48.6-3 55.6-13.4 56.8-3 .4-5.8 2.2-6.4 4.6-1.2 3.6-3.8 3.8-84.6 3.6-45.8 0-85.6-.8-88.4-1.6z"/>
    <path d="M2407.6 3831.6c-9.2-12.4-10-17-9-52 1-34.4 4-63.6 7.2-72.4 1.2-2.8 4-16.2 6.2-29.8 2.2-13.4 7.2-34.8 11-47.4 3.8-12.6 9.2-31 12.2-41 2.8-9.8 7.2-22 9.8-27 2.4-5 6.6-15.2 9-23 4.8-14.4 12.8-31.6 32.6-70 1.8-3.2 4.6-9.2 6.2-13.2 1.8-4 4.4-8.4 6.2-9.8 1.6-1.4 3-3.4 3-4.6 0-1.2 1.2-3.6 2.8-5.2 1.4-1.8 5.6-8.6 9.2-15.2 3.6-6.6 8.6-14.2 11.2-17.2 2.6-2.8 4.8-6 4.8-7 0-1.2 1.8-3.8 4-5.8s4-4.4 4-5.6c0-1 3-5.4 6.6-9.4 3.4-4.2 8.6-11 11.4-15.2 2.8-4 10.6-13.4 17.6-20.8 6.8-7.4 12.4-14.2 12.4-15.2 0-2.6 68.6-70.8 71-70.8 1.2 0 7.4-5.4 14-12s12.8-12 14-12c1.2 0 4.8-2.6 8-6 3.2-3.2 6.8-6 8-6 1.2 0 5.8-3.6 10-8s8.8-8 10-8c1.4 0 4-1.8 6-4s4.6-4 6-4c1.2 0 4.4-2.4 7.2-5.2 2.6-3 8.4-7 13-9 4.4-2 9.8-5.6 11.8-7.8 2.2-2.4 7.6-6 12.2-8 4.4-2.2 9.4-5.2 10.8-7 3-3.6 16.4-12.8 25-17 3.4-1.6 9.8-6 14.4-10 9.6-8 31-24 37-27.2 2.2-1.4 6.8-5 10.2-8.2 3.6-3.2 10.4-8.4 15.4-11.6 5-3.2 13.6-10 19.4-15 21.8-18.8 27-23 32.2-26.2 3-1.6 6.4-5 7.6-7.4 3-6.2 9-12.4 11.8-12.4 1.2 0 4.8-2.6 8-6 3.2-3.2 6.8-6 7.8-6 2.8 0 81.2-78.4 81.2-81.2 0-1 3.6-5.6 8-9.8 4.4-4.2 8-8.8 8-10.2 0-1.4 3.2-4.2 7-6.6 4-2.2 7.8-5.8 8.6-8 1.6-4 9.4-13.8 26-32 5.6-6.4 10.4-12.4 10.4-13.6 0-1 1.8-3.6 4-5.6 2.2-2 4-4.6 4-6 0-1.2 3.6-5.8 8-10s8-8.8 8-10c0-1.2 3-5.2 6.6-8.8 3.8-3.4 8.8-10.2 11.2-15 2.4-4.8 5.6-9.8 7.2-11.2 1.6-1.4 3-3.6 3-5 0-1.2 1.8-4 4-6s4-4.6 4-6c0-1.4 1.8-4 4-6s4-4.6 4-5.8c0-1 2.2-4.2 4.8-7 2.6-3 7.6-10.6 11.2-17.2 3.6-6.6 7.4-13.2 8.4-14.4 1.2-1.4 4.8-7.8 8-14 3.2-6.4 7.2-13 8.6-14.6 2.4-2.6 22.8-42.8 35.6-70 2.4-5 6.8-13.2 9.8-18.2 3.2-5 5.6-10.6 5.6-12 0-1.6 5.2-15 11.8-29.8 6.4-14.8 12.4-29.2 13.2-32 .8-2.8 5-13 9.2-23 4.2-9.8 8.6-22.4 9.8-27.8 1.2-5.6 5-16.2 8.2-23.8 3.4-7.4 9.2-24.8 12.8-38.4 3.8-13.6 8.2-28 10-32.4 1.8-4.2 5.8-19.8 9.2-34.6 3.2-14.8 8-34.2 10.6-43 4.8-15.8 8.6-36.4 14.4-76 1.6-11 4.6-27.6 6.6-37 6.8-30 8.2-60 8.2-170.2 0-110.4-1.6-144.8-8.2-177.8-2-10.4-6-34.2-8.8-53-3-18.6-8-45.2-11.2-59-3.2-13.8-8.2-36.6-11-51-2.8-14.2-7.2-32.8-9.8-41-2.8-8.2-7.6-24-10.8-35-3.2-11-8.4-27.6-11.8-37-3.4-9.4-7.8-22.4-9.6-29-2-6.6-5.6-15.6-8.2-20.2-2.4-4.4-6.2-13-8.4-19-2-6-7.8-19.4-12.6-29.8-5-10.4-10.6-23.8-12.4-29.4-2-5.8-4.4-11-5.4-11.8-2.2-1.2-15.8-29.4-15.8-32.6 0-1.2-2.6-5-5.6-8.6-3.2-3.6-10-15.2-15.4-25.6-5.2-10.4-10.4-20.2-11.4-21.4-1.2-1.4-4.6-7.8-8-14-3.2-6.4-8-13.8-10.8-16.8-2.6-2.8-4.8-6.4-4.8-8.2 0-4.6-5.4-14.4-11-19.6-2.8-2.6-5-5.8-5-7 0-1.4-1.8-4-4-6s-4-4.6-4-6c0-1.2-2.2-4.4-5-7-2.8-2.6-7.4-9.8-10.4-15.8-3-6.2-9-15.4-13.4-20.6-13.2-15.2-19.2-23-19.2-25 0-1-2.6-4.4-6-7.6-3.2-3.2-6-6.8-6-8 0-1.2-3.2-5.4-7.2-9.2-3.8-3.6-8.8-10.6-11-15.2-2.2-4.8-5-8.6-6.6-8.6-2.8 0-11.2-8.2-11.2-11 0-1-4.2-6-9.2-11.2-5-5.2-10.2-11.4-11.6-14-1.2-2.4-4.8-6-8.2-7.8-3.2-1.8-8.6-7-11.6-11.6-3.2-4.6-7-8.4-8.6-8.4-1.6 0-2.8-1.2-2.8-2.6 0-3-53.6-56.4-58.6-58-1.8-.8-4.2-3.4-5.2-5.8-2-5.2-9.4-12.4-14.6-14.2-1.8-.6-4.4-3.6-6-6.8-1.4-3.2-6-7.2-10.6-9.2-9.4-4.4-17-11-17-14.8 0-1.4-2-3.4-4.6-4.4-2.6-1-5.8-3.2-7.2-5-1.4-1.8-3.8-3.2-5-3.2-1.4 0-6-3.6-10.2-8-4.2-4.4-8.8-8-10-8-1.2 0-5.8-3.6-10-8s-8.8-8-10-8c-1.4 0-4-1.8-6-4s-4.6-4-6-4c-1.2 0-4.8-2.8-8.2-6.2-3.2-3.4-10-8.2-15-10.8-5-2.6-10.2-6.2-11.6-7.8-1.6-1.8-3.8-3.2-5-3.2-1.4 0-4.6-2.4-7.4-5.2-2.6-2.8-6.6-6-8.8-7-2.2-1-11.6-6.8-21-12.8-9.4-6-24.6-14.8-34-19.8-9.4-4.8-19.2-11.2-21.8-14-2.8-2.8-6.6-5.2-8.6-5.2-4 0-23-9.4-24.8-12.2-1.8-3-16.4-11.8-19.4-11.8-1.6 0-10.2-3.6-19.2-8s-17-8-18-8c-.8 0-9-3.6-18-8s-17.2-8-18.2-8c-1.8 0-19.4-7.8-36-16-7-3.4-22.6-9-40-14.2-5-1.4-14.6-5.2-21.6-8.2-7-3.2-17-6.6-22-7.8-5.2-1.2-18.8-5.4-30.4-9.2-11.6-3.8-34-9.8-50-13.6-16-3.6-38-9-49-11.8-11-2.6-32.2-6.8-47-9.2-14.8-2.2-36.8-6.2-49-9-12-2.6-34.2-5.8-49-7-14.8-1.2-34.8-3-44.2-4.2-22.8-2.4-186.4-2.4-215.6.2-58.8 5-72.6 6.6-91.2 10.2-11 2-37.6 6.4-59 9.8-21.4 3.2-50.2 9.2-64 13-13.8 3.8-33.6 9-44 11.8-31.8 8.2-70.8 20.4-92.4 29-11.4 4.4-30.4 11.8-42.6 16.4-47 17.8-57 22-88 36.8-17.6 8.4-34.2 16.4-37 17.6-2.8 1.2-9.2 4.8-14.2 7.8-5 3.2-10.4 5.6-11.8 5.6-1.6 0-4.2 1.2-5.8 2.8-1.8 1.4-12.2 7.4-23.2 13.2-11 5.8-23.8 13-28.6 16.2-4.8 3.2-12.4 7.8-17 10-4.6 2.4-23.6 14.6-42.4 27.2-53.8 36.2-58.8 39.8-82.8 60-4.2 3.6-8.6 6.6-9.6 6.6s-4.4 2.6-7.6 6c-3.2 3.2-7 6-8.4 6-1.4 0-3.6 2.2-4.6 5-1 2.8-5.4 6.4-10.4 8.8-9 4-16 10.6-18.2 16.8-.8 1.8-3.4 4.2-5.8 5.2-2.6 1-7.8 5-11.4 9-3.8 4-8 7.2-9.2 7.2-2.6 0-73 70.4-73 73.2 0 1-3.2 5.2-7.2 9-4 3.6-8 8.8-9 11.4-1 2.4-3.4 5-5.2 5.8-4.8 1.6-14.6 10.8-14.6 13.6 0 1.2-3.6 5.8-8 10s-8 8.8-8 10c0 1.2-4.6 6.6-10 12-5.6 5.4-10 10.8-10 12.2 0 1.2-1.8 3.8-4 5.8s-4 4.6-4 6c0 1.2-3.6 5.8-8 10s-8 8.8-8 10c0 1.4-1.8 4-4 6s-4 4.6-4 6c0 1.2-2.8 4.8-6 8-3.4 3.2-6 6.8-6 8 0 1.4-1.8 4-4 6s-4 4.6-4 6c0 1.4-1.8 4-4 6s-4 4.4-4 5.6c0 1-6.4 11.2-14 22.8-7.6 11.6-14 21.6-14 22.6 0 .8-1.4 2.6-3 4s-6.6 9.8-11 18.8c-4.2 9-10.2 18.6-13 21.2-2.8 2.6-5 6.2-5 7.8 0 4.2-13.4 31.2-17 34.2-1.6 1.4-3 3.8-3 5.4 0 4.2-13.4 31.6-17 34.6-1.6 1.4-3 4.4-3 7 0 2.4-.6 4.8-1.2 5.6-5.8 5.8-47.4 111.4-60.2 152.4-2.6 8.8-8 26.4-12 39-7.8 25.4-10.4 35.4-15.6 58.8-1.8 8.6-5 20.6-7.2 26.6-2 6.2-6.4 30.6-9.8 54.4-3.4 23.8-7.8 53.2-10 65.2-6 35.6-8 61.4-8 105.2 0 26.2-.8 41.8-2.2 43.2-1.4 1.4-1.6 10.2-1 25.8.8 13.2 2 47.2 3 75.8 1.8 54.8 4.6 87.4 8 99 1.2 3.8 3.6 18.2 5.4 31.8 5.4 44.6 10 68 27 138.2 2.4 10 15.2 51.6 24.2 79 18.4 55.8 24.6 71.6 46.2 119.8 8.8 20 53.2 108.8 58.4 117.2 2.4 3.8 7.4 12.4 11 19 3.6 6.6 8 13.8 10 16 2 2.2 6.4 9.4 10 16 3.6 6.6 8.6 14.2 11.2 17.2 2.6 2.8 4.8 5.6 4.8 6.6 0 .8 4.2 7.8 9.6 15.6 5.2 7.6 12.2 18.4 15.6 23.8 3.4 5.6 8.2 12 10.6 14.6 2.2 2.4 4.2 5.4 4.2 6.6 0 1 1.8 3.6 4 5.6 2.2 2 4 4.6 4 6 0 1.2 3.6 5.8 8 10s8 8.8 8 10c0 1.2 3.6 5.8 8 10s8 8.8 8 10c0 1.2 3.6 5.8 8 10s8 8.8 8 10c0 1.2 2.8 4.8 6 8 3.4 3.2 6 7 6 8.4 0 1.4 2 3.4 4.6 4.4 5.2 2 13 10 16.2 16.6 1.2 2.6 4.2 5.4 6.8 6.6 2.4 1 4.4 3 4.4 4.2 0 1.2 1.4 3.6 3.2 5 1.8 1.4 4 4.6 5 7.2 1 2.6 3 4.6 4.4 4.6 3.2 0 9 6 12.2 12.6 1.4 2.4 4.6 5.6 7.6 6.8 5.6 2.8 9.2 6.6 12.6 13.2 1 2.2 4.8 5.6 8 7.4 3.4 1.8 8.4 6.8 11.2 10.8 3 4.4 8.8 9.4 13.6 11.6 5 2.2 9.2 5.8 10.2 8.6s3 5 4.6 5c1.4 0 7.8 5.4 14.4 12 6.6 6.6 12.8 12 14 12 1.2 0 6.6 4.6 12 10 5.4 5.6 10.8 10 12 10 1.2 0 6.6 4.6 12 10 5.4 5.6 10.8 10 12.2 10 1.2 0 3.8 1.8 5.8 4s4.8 4 6.4 4c1.4 0 2.6 1.4 2.6 3s3.8 4.6 8.6 6.8c4.6 2.2 11.6 7.2 15.2 11 3.8 4 8 7.2 9.2 7.2 1.4 0 4 1.8 6 4s4.6 4 6 4c1.2 0 4.8 2.8 8 6 3.2 3.4 6.8 6 8 6 1.4 0 4 1.8 6 4s4.6 4 6 4c1.2 0 4.8 2.8 8 6 3.2 3.4 6.8 6 8 6 1.4 0 4 1.8 6 4s5.6 4 8 4c2.4 0 6.8 2.8 10 6 3.2 3.4 6.8 6 8 6 1.4 0 4 1.8 6 4s4.6 4 6 4c1.2 0 4.4 2.4 7.2 5.2 4.8 5.2 13.8 10 20.6 11.2 6.6 1 10.8 11.2 11 25.8.2 9.4-.6 14-2.8 15.8-3.6 3-13 21.8-13 26 0 1.8-2.2 5.4-5 8-2.8 2.6-9.6 13.8-15.4 24.8-5.6 11.2-12.4 23.6-15 27.8-2.6 4-6.8 12.2-9.4 18-2.8 5.6-7.2 13.8-10 18-2.8 4.2-5.2 8-5.2 8.6 0 .4-2.4 4.6-5.4 9.4-7.6 11.8-10.6 17.4-10.6 20.4 0 3.8-5.6 14-10 18-2.2 2-6.2 8.2-8.8 13.8-10.6 22.8-12.8 27-17.6 32.6-1.6 2-4.4 6.8-6.2 10.6-3.4 7.8-9.2 13.6-18.8 19-5.6 3.2-7.2 3.4-12 1.2-15.2-7-36.4-18.6-46.4-25.2-4.8-3.4-10.2-7-12-8-1.8-1.2-12.2-8.2-23.2-15.6s-21.8-14.8-24-16.2c-15-10-46-30.6-49.2-32.4-2-1.2-5.4-3.6-7.4-5.4-2-2-4.6-3.4-5.6-3.4-1.2 0-4.6-2.6-7.8-6-3.2-3.2-6.8-6-8-6-1.2 0-4.8-2.6-8-6-3.2-3.2-6.6-6-7.4-6-2.2 0-12-6.8-23-16-4.6-3.8-13-10.6-18.6-15-5.6-4.4-16.4-13.6-23.8-20.4-7.4-7-14.4-12.6-15.4-12.6-1.2 0-6-4.2-10.8-9.2-5-5-11-10-13.6-11-2.4-1-5.2-3.8-6.2-6.2-2.2-5.8-9.6-12.2-17.2-15.4-3.4-1.2-7-4.2-8-6.8-1.2-2.4-4.2-5.4-6.8-6.8-6.6-3.2-79.4-75.8-85.8-85.6-3-4.4-6.2-9.8-7.4-12-1.2-2.2-4.2-5-7-6.4-2.6-1.4-7.2-5.8-10-10s-7.2-8.4-9.6-9.6c-2.4-1-4.4-3-4.4-4.2 0-1.2-1.8-3.8-4-5.8s-4-4.6-4-5.8c0-1.4-5.4-7.6-12-14.2s-12-12.8-12-13.8c0-1.8-4.8-7.4-26.4-32-5.4-5.8-9.6-11.4-9.6-12.6 0-1-2.8-4.4-6-7.6-3.4-3.2-6-6.6-6-7.6 0-1.8-5.2-9-15.2-21-3.4-4-8.6-11.6-11.6-16.6-2.8-5-7-10.8-9.2-12.8-2.2-2-4-4.6-4-6 0-1.4-1.8-4-4-6s-4-4.6-4-6c0-1.2-2.8-4.8-6-8-3.4-3.2-6-6.8-6-8 0-1.4-1.8-4-4-6s-4-4.4-4-5.4-2.4-5.4-5.4-10.2c-3-4.6-7.2-11.6-9.2-15.4-2.2-3.8-5.8-9.2-8.2-12-7.6-8.8-13.2-17.8-13.2-21 0-3.4-4.6-11.6-10.2-18-2-2.2-7.2-11.2-11.8-20-4.6-8.8-9.6-17.4-10.8-19-8.4-10.6-57.6-115.4-67.4-143.6-3.2-9.2-7.4-18.8-9-21.4-3.4-5.2-19.2-46-24-62-1.6-5.4-7.4-24-12.8-41-5.2-17-11.8-40-14.6-51-2.8-11-11.4-44.8-19-75-7.8-30.2-15.6-63.6-17.4-74-1.8-10.4-5.8-32.4-9-49-6.6-34.4-9-50.6-13-91-1.6-16-4.2-38.8-5.6-51-7.2-54.2-7.8-68.2-6.8-138 .8-68.4 2.4-93.4 8.2-138 1.6-12 4-33.2 5.2-47 3.6-40.2 7.8-73.4 13-99 2.6-13.2 6.2-34.4 7.8-47 3.4-24.2 21.4-103.8 30-131 2.6-8.8 7.6-25.8 11-38 10.4-37 41-124.8 48.6-140 1.6-3.2 4.6-11 6.6-17 4.6-14.4 19.4-49.4 28.2-66.8 4-7.6 8.8-17.8 10.8-23 5-12.8 39.4-82 42.6-86 1.4-1.8 4.8-7.6 7.4-13.2 5.8-11.8 21.2-36.2 24-38 1.2-.6 3.8-5.2 6-10 2.2-4.6 15.2-25.4 29-46s25-38 25-38.8c0-.8 2.6-4 6-7.2 3.2-3.2 6-6.8 6-8 0-1.2 2-4.2 4.6-6.6 2.6-2.4 6.6-8.2 9-13 2.2-4.6 7.4-11.6 11.2-15.2 4-3.8 7.2-8 7.2-9.2 0-1.4 1.8-4 4-6s4-4.6 4-5.8c0-1.4 4.4-6.8 10-12.2 5.6-5.4 10-10.8 10-12 0-1.2 3.6-5.8 8-10s8-9 8-10.4c0-1.2 3.4-5.2 7.8-8.6 4.2-3.4 8.8-8.6 10.4-11.6 3.8-8 97-106.4 100.6-106.4 1 0 12.6-10.2 25.4-22.6 23.6-22.6 34.2-32 42.8-37.4 5.6-3.6 16.8-13 33.8-28.6 6.8-6.2 13.4-11.4 14.4-11.4 1.2 0 4.6-2.8 7.8-6 3.2-3.4 6.8-6 8-6 1.2 0 4.8-2.8 8-6 3.2-3.4 6.8-6 8-6 1.2 0 4.8-2.8 8-6 3.2-3.4 6.6-6 7.6-6 1.8 0 8.6-4.8 21-15.2 9.6-8 41.4-28.8 44-28.8 1 0 3-1.4 4.6-3.2 3.2-3.8 40.8-28.8 43.4-28.8 1 0 3-1.4 4.4-3 1.4-1.8 6.4-5 11-7s9.6-5.4 11.2-7.2c1.4-1.8 6.4-5 10.8-7.2 9.8-4.6 15.6-8 19.8-11.4 1.6-1.4 7.8-5 13.6-7.8 5.8-3 14.2-7.8 18.6-10.6 7.2-4.6 100.4-51.4 117-58.6 3.8-1.8 8.4-4 10-5 5.2-3.2 24.4-10.2 27.8-10.2 2 0 8-2.2 13.6-4.8 5.6-2.8 18.6-8.2 28.8-12.2 10.4-3.8 25.2-9.6 32.8-12.8 29-11.6 128.4-41.4 155-46.2 6-1.2 22.8-5.2 37-9 14.4-3.8 42.2-9.6 61.8-13 19.8-3.4 41-7.4 47-9 16.4-4.2 67.6-10.2 110.2-13 13.8-.8 28.6-2.6 33-4 13.2-4 67.4-6.4 151-6.4 83.4 0 133.8 2.2 147 6.4 4.4 1.4 18.8 3.2 32 4.2 47.4 3.2 86.2 8 112 13.6 10 2.2 31.6 6.2 48 9 16.6 2.8 35 6.4 41 8 6 1.6 25.4 6 43.2 10 17.8 4 37.4 9 43.6 11.2 6.4 2.2 17.6 5.4 24.8 7.2 15.6 3.6 84.2 26 113.4 36.8 11 4 23.6 8.4 28 10 4.4 1.4 9.4 3.6 11 5 1.6 1.6 10.6 5.4 20 8.6 9.4 3.2 25.8 10 36.6 15.2 10.8 5 19.8 9.2 20.4 9.2.4 0 13 6 28.2 13.2 45 21.4 122.8 63.8 151.2 82.2 7.4 4.6 14.2 8.6 15 8.8.8 0 5.6 3.2 10.6 7 5 3.6 10.8 7.6 13 8.6 2.4 1 5.4 3.2 6.8 5 1.4 1.8 3.8 3.2 5.2 3.2 1.4 0 3.6 1.4 5 3 1.4 1.8 6.4 4.8 10.8 7 4.6 2 10.4 6 13 8.8 2.8 2.8 5.6 5.2 6.4 5.2 2.4 0 18.4 11.2 22.6 15.8 2.2 2.4 4.8 4.2 6.2 4.2 1.4 0 4 1.8 6 4s4.6 4 6 4c1.2 0 4.8 2.6 8 6 3.2 3.2 6.8 6 8 6 1.2 0 4.8 2.6 8 6 3.2 3.2 6.8 6 8 6 1.2 0 5.4 3.2 9.2 7.2 3.6 4 8.8 8 11.4 9 2.4 1 5.2 3.8 6.2 6.6 1.2 2.6 4.2 5.2 7.4 6 3 .8 12.4 8.2 20.8 16.4s16.2 14.8 17.2 14.8c2.4 0 130.8 128.4 130.8 131 0 1 7.8 9.6 17.2 19.2 9.4 9.4 19 21.2 21.4 26 2.4 4.8 6.4 9.6 9 10.8 2.4 1 4.4 3 4.4 4.2 0 1.2 1.8 3.8 4 5.8s4 4.6 4 6c0 1.2 3.6 5.8 8.2 10 4.6 4.4 10.4 11.2 13 15 2.6 3.8 8 11 11.6 16 3.8 5 7 10 7 11.2.2 1.2 1.6 3.6 3.6 5 3.4 3 58.8 84.2 70.4 103.6 3.8 6.2 11.6 18.6 17.4 27.6 29.6 45.4 95 177.2 108.6 218.2 2 6.6 5.4 14.8 7.4 18.6 6.4 12.6 42.2 114 51.6 146.8 13.6 47.4 34 134.4 39.4 168 2.2 14.4 5.2 32.4 6.8 40 4.2 21.2 16.8 126.8 21.2 177 1 11.6 2.6 29.6 3.8 40 2.4 23 2.6 123.4.2 124.8-.8.6-2.2 15.8-2.8 33.6-.8 18-2.2 37-3.4 42.6-1.2 5.4-3.4 25.6-5 45-3.8 42.2-8.6 82.4-11 92-1 3.8-5.4 27.2-10 52-4.4 24.8-9.8 51-12 58.2-2.2 7.4-6.2 24-9 37-2.8 13.2-8.2 33.2-12 44.8-3.6 11.6-9 28.2-11.6 37-2.8 8.8-6.8 21-9 27s-6.6 20-9.6 31c-3.2 11-7.2 23.2-9 27-1.8 3.8-5.4 13.8-7.8 22-2.4 8.2-6.4 19-9 24-2.4 5-7.8 18.4-12 30-4.2 11.6-8.8 22.4-10 24-1.4 1.6-4.8 9.4-7.6 17.2-2.8 7.8-18.4 40.6-34.8 72.8-31.6 62.8-32.4 64.2-36.8 69.4-1.6 2-4 5.8-5.2 8.6-6.6 15.2-10.4 22.4-15.2 27.6-2 2-3.4 4.4-3.4 5.2 0 1-2.6 5.6-6 10.6-3.2 4.8-6 9.6-6 10.4 0 1-1.4 2.8-3 4.2-1.8 1.4-4.8 6.4-7 10.8-2 4.6-6.6 11.2-10 15-3.6 3.8-8.2 10.4-10.4 14.4-2.2 4.2-5.2 8.6-6.8 10-1.6 1.2-2.8 3.4-2.8 4.8 0 1.2-1.8 4-4 6s-4 4.6-4 6c0 1.4-1.8 4-4 6s-4 4.6-4 6c0 1.2-3.6 5.8-8 10s-8 8.8-8 10c0 1.2-3.6 5.8-8 10s-8 8.8-8 10c0 1.4-1.8 4-4 6s-4 4.6-4 6c0 1.2-2.6 4.8-6 8-3.2 3.2-6 6.8-6 8 0 1.2-5.4 7.4-12 14s-12 12.8-12 14c0 1.2-4.4 6.6-10 12-5.4 5.4-10 10.8-10 12 0 1.2-4.4 6.6-10 12-5.4 5.4-10 10.8-10 12 0 3.4-136.4 138-143 141-8.2 3.8-15 10-17.2 15.6-1 2.4-3.8 5.2-6.2 6.2-2.6 1-6.8 4.2-9.4 7-2.8 2.8-6 5.2-7.2 5.2-1.2 0-5.8 3.6-10 8s-8.8 8-10 8c-1.2 0-5.8 3.6-10 8s-8.8 8-10 8c-1.2 0-5.4 3.2-9.2 7.2-3.6 3.8-10 8.4-13.8 10-3.8 1.6-9.2 5-12 7.6-4.4 4-14 10.8-33.8 23.6-2.8 2-9.4 5.8-14.6 8.6-5.2 2.6-9.8 5.8-10.6 7-.6 1-13 9.8-27.6 19.4-33.2 21.8-49.2 33.8-77.4 57.6-16.6 14-23.2 19-25.8 19-1.2 0-2.2 1-2.2 2.2 0 1-6.2 9-14 17.4-23.8 26.2-31 35-38.6 46.6-3.8 6-8.6 12.2-10.2 13.6-1.8 1.6-3.2 3.6-3.2 4.6 0 1.2-2.6 5.8-5.6 10.4-10.4 15.6-26.8 49.8-34.4 72-4.2 12.2-10 28.6-12.8 36.4-6.2 17.6-9.2 33.4-11.2 61.8-2 26.8-3.6 34.4-11.2 50.4l-5.8 12.6h-304.6l-4.8-6.4z"/>
    <path d="M1982 2410.2c-27.2-4.2-33.4-5.8-65-16.4-25.8-8.8-70-29.8-85.6-41-5.2-3.8-10-6.8-10.6-6.8-.8 0-4.2-2.4-8-5.4-3.6-3.2-10.4-8.2-15-11.6-11.2-8-51.8-47.2-51.8-50 0-1.2-2.6-4.8-6-8-3.2-3.2-6-6.8-6-8 0-1.2-3.6-5.8-8-10s-8-8.6-8-9.8c0-1-1.6-3.8-3.8-6-3.4-4-24.2-43.8-30.8-59.2-15.4-36.2-23.4-63.4-27.4-94-1.2-9.4-4-23.6-6.2-31.8-5.2-20.8-5.4-58 0-70.4 2-5 4.8-19 6-31.8 2.4-23.2 10.4-58.4 14.2-63 1.2-1.4 3.4-7.4 5-13.4 3.4-13.6 11.8-32.2 16-35.6 1.6-1.4 3-4 3-6 0-4.4 8.6-21.2 13.6-26.6 2.2-2.4 6.8-9.8 10.4-16.4 3.6-6.6 12.2-17.8 19.2-25 7-7.2 12.8-14 12.8-15.2 0-2 18-19.4 47.4-46 7.6-6.6 16.8-13.6 20.8-15.4 3.8-1.8 8.8-5.2 11-7.6 2-2.4 8.8-6.6 14.8-9.4 6-2.8 13.2-7.2 16-9.6 2.8-2.6 10.6-6.4 17.4-8.6 6.8-2.2 16.4-6.2 21-8.8 12-6.6 31.6-13.4 39.2-13.4 3.4 0 6.8-.8 7.4-2 .6-1 5-2 9.6-2 4.8 0 11.2-1.6 15-4 4-2.6 10-4 16-4 5.4 0 10.6-1 11.6-2 1.4-1.4 19.2-1.8 52-1.4 49.6.8 66.4 2.4 77.8 7.4 5.8 2.4 10.2 3.6 33.6 7.8 10.8 1.8 36.6 11.6 54 20.4 4.4 2 9.4 3.8 11.2 3.8 2 0 5.2 1.8 7.2 4s4.8 4 6 4c1.4 0 3.6 1.2 4.8 2.8 1.4 1.6 8 5.6 14.8 8.8 6.8 3.4 14.6 8.4 17.2 11.2 2.8 2.8 6 5.2 7.2 5.2 1.2 0 5.8 3.6 10 8s8.8 8 10 8c1.2 0 7 5 13 11.2 6 6.2 13 12 15.6 13 2.4 1 5.2 3.8 6.2 6.2 1 2.6 6 8.6 11 13.6 5 4.8 9.2 9.8 9.2 11 0 1.2 4.6 6.6 10 12 5.6 5.4 10 10.6 10 11.4 0 .8 5 9.6 11 19.6 16.2 26.8 23.8 42.8 30 63 3.2 10 6.4 19 7.2 20.2 2.8 3.4 11.4 42.4 13.8 60.8 3 24.6 2.4 107.2-.8 130-3.2 21.6-9.8 49-14 57.4-1.6 3-4.8 12.4-7.2 20.6-4.8 16.8-26.2 60.8-37 76-3.8 5.4-7 10.6-7 11.6 0 .8-3.4 5-7.6 9-4.2 4.2-8.8 10.4-10.2 14-1.4 3.6-4.6 7.4-7 8.6-2.2 1-5.4 4.2-6.6 7-2.8 5.8-6.6 9.4-13.4 12.8-2.2 1.2-5.4 4.4-6.6 7.4-2.8 5.6-6.6 9.2-13.4 12.6-2.2 1.2-5.4 4.6-6.8 7.6-1.6 3.2-6.2 7-11 9.2-4.8 2.2-10.2 5.8-12.4 8.2-2.2 2.4-8.4 7.4-14 11-13.8 9-72 37.8-83 41-5 1.4-14.8 4.6-22 7.2-30.2 10.6-49.8 13.2-111 14-34.6.4-49-.2-67-3z"/>
  </g>
</svg>
